<svg width="55" height="58" viewBox="0 0 55 58" fill="none" xmlns="http://www.w3.org/2000/svg">
<rect x="52.8519" y="56.1419" width="52" height="54" rx="26" transform="rotate(-179.686 52.8519 56.1419)" stroke="#959EAD" stroke-width="2"/>
<path d="M26.0504 23.0951C25.7362 23.4059 25.7649 23.8748 26.0444 24.1889L29.8059 27.8032L20.8061 27.754C20.3998 27.7518 20.0544 28.0624 20.052 28.4999L20.0465 29.4998C20.0443 29.9061 20.3861 30.2517 20.7924 30.2539L29.7922 30.3032L25.9915 33.845C25.7086 34.1559 25.6748 34.6245 25.9856 34.9387L26.6693 35.6299C26.949 35.9127 27.449 35.9155 27.7318 35.6358L33.8275 29.5753C34.1416 29.2957 34.1441 28.827 33.8332 28.5441L27.8041 22.4172C27.5244 22.1344 27.0557 22.1319 26.7416 22.4114L26.0504 23.0951Z" fill="#959EAD"/>
</svg>
