<svg width="48" height="48" viewBox="0 0 48 48" fill="none" xmlns="http://www.w3.org/2000/svg">
<rect x="1" y="0.999939" width="46" height="46" rx="23" stroke="#183B56" stroke-width="2"/>
<path d="M23.5703 19.582C23.2969 19.8554 23.3242 20.2656 23.5703 20.539L26.8789 23.6562H19.0312C18.6484 23.6562 18.375 23.957 18.375 24.3124V25.1874C18.375 25.5703 18.6484 25.8437 19.0312 25.8437H26.8789L23.5703 28.9882C23.3242 29.2617 23.3242 29.6718 23.5703 29.9453L24.1719 30.5468C24.4453 30.7929 24.8555 30.7929 25.1016 30.5468L30.4336 25.2148C30.6797 24.9687 30.6797 24.5585 30.4336 24.2851L25.1016 18.9804C24.8555 18.7343 24.4453 18.7343 24.1719 18.9804L23.5703 19.582Z" fill="#183B56"/>
</svg>
