<svg width="50" height="50" viewBox="0 0 50 50" fill="none" xmlns="http://www.w3.org/2000/svg">
<rect x="47.9925" y="48.0076" width="46" height="46" rx="23" transform="rotate(-179.981 47.9925 48.0076)" stroke="#959EAD" stroke-width="2"/>
<path d="M23.6019 20.0565C23.3284 20.3299 23.3556 20.74 23.6016 21.0136L26.9091 24.1592L19.0341 24.1566C18.6787 24.1565 18.3778 24.4298 18.3777 24.8126L18.3774 25.6876C18.3773 26.0431 18.678 26.344 19.0334 26.3441L26.9084 26.3467L23.5988 29.4628C23.3526 29.7361 23.3252 30.1463 23.5985 30.4198L24.1999 31.0216C24.4459 31.2678 24.8834 31.2679 25.1296 31.0219L30.436 25.6916C30.7095 25.4456 30.7096 25.0354 30.4363 24.7892L25.1333 19.4555C24.8873 19.2093 24.4772 19.2092 24.2037 19.4552L23.6019 20.0565Z" fill="#959EAD"/>
</svg>
